<?xml version="1.0" standalone="no"?>
<!DOCTYPE svg PUBLIC "-//W3C//DTD SVG 20010904//EN"
 "http://www.w3.org/TR/2001/REC-SVG-20010904/DTD/svg10.dtd">
<svg version="1.0" xmlns="http://www.w3.org/2000/svg"
 width="700.000000pt" height="700.000000pt" viewBox="0 0 700.000000 700.000000"
 preserveAspectRatio="xMidYMid meet">
<metadata>
Created by potrace 1.11, written by Peter Selinger 2001-2013
</metadata>
<g transform="translate(0.000000,700.000000) scale(0.100000,-0.100000)"
fill="#000000" stroke="none">
<path d="M4515 6973 c-306 -124 -553 -395 -674 -738 -39 -109 -81 -355 -90
-525 -7 -136 -2 -121 -98 -292 -30 -54 -67 -130 -82 -170 -34 -91 -84 -197
-92 -198 -6 0 -21 54 -62 220 -8 36 -49 135 -90 221 -69 141 -76 162 -78 224
-3 78 -31 208 -62 280 -80 189 -226 337 -438 441 -141 70 -412 155 -542 170
-29 4 -55 8 -58 10 -3 1 -58 6 -122 9 -150 9 -205 -3 -248 -54 -26 -32 -29
-41 -25 -82 11 -92 58 -191 168 -353 123 -179 247 -306 403 -410 182 -123 427
-207 644 -223 l87 -6 43 -109 c59 -153 105 -320 131 -473 19 -109 21 -154 17
-280 -5 -155 -18 -220 -67 -332 -19 -45 -27 -53 -49 -53 -25 0 -27 4 -44 84
-90 439 -370 846 -752 1095 -150 97 -475 243 -622 278 -38 8 -89 22 -115 29
-61 18 -99 18 -147 -2 -68 -27 -86 -95 -57 -219 8 -33 17 -91 21 -130 11 -108
156 -668 228 -880 74 -219 88 -255 118 -297 23 -31 16 -46 -21 -49 -56 -3 -99
-8 -125 -13 -16 -4 -93 -13 -170 -21 -156 -17 -654 -124 -843 -181 -301 -91
-513 -220 -578 -350 -18 -37 -19 -63 -19 -399 0 -265 3 -371 13 -403 16 -52
116 -162 181 -199 25 -15 47 -27 49 -29 5 -3 10 -47 17 -146 3 -53 8 -107 10
-120 3 -13 8 -39 11 -58 13 -72 67 -289 101 -400 82 -270 259 -615 451 -875
37 -49 69 -92 72 -95 3 -3 18 -21 34 -40 291 -356 732 -674 1100 -794 l109
-36 1345 0 1344 0 127 42 c215 71 450 200 651 357 92 71 306 280 387 376 197
235 369 519 532 878 86 191 151 410 185 627 6 35 15 145 20 233 2 46 4 48 62
83 114 68 167 154 182 298 4 40 7 202 7 362 -1 270 -3 292 -22 335 -69 154
-246 248 -678 359 -88 23 -205 54 -260 70 -98 28 -169 42 -270 55 -27 3 -50 7
-51 8 -7 7 54 62 117 107 41 30 84 62 95 72 16 15 31 18 60 14 22 -3 77 -10
123 -17 181 -25 318 9 487 120 198 131 334 310 384 508 27 102 27 244 0 347
-32 126 -129 299 -221 396 -163 171 -464 281 -679 247 -165 -25 -340 -117
-470 -246 -112 -112 -176 -229 -223 -408 -24 -90 -26 -123 -13 -226 6 -47 4
-63 -10 -85 -22 -34 -11 -24 -195 -163 -85 -64 -192 -151 -239 -194 -141 -128
-267 -232 -368 -304 -54 -38 -113 -85 -131 -105 -19 -20 -38 -36 -41 -36 -7 0
120 319 213 535 169 393 165 374 93 444 l-42 41 -53 -10 c-66 -12 -125 -45
-338 -187 -294 -196 -426 -291 -483 -346 -30 -29 -86 -77 -125 -107 -38 -30
-103 -88 -144 -129 -41 -42 -71 -67 -67 -56 4 11 14 40 23 65 49 147 162 410
278 650 73 151 156 327 185 390 29 63 57 120 62 127 5 7 31 22 56 34 66 31
225 143 282 198 64 62 186 237 248 358 75 146 129 312 157 483 3 19 9 98 12
176 l6 140 -40 42 c-37 39 -44 42 -89 41 -27 -1 -76 -12 -109 -26z m-40 -365
c-19 -163 -72 -319 -155 -458 -67 -111 -107 -158 -198 -231 -42 -35 -78 -66
-80 -71 -2 -4 -8 -8 -14 -8 -15 0 -3 116 23 218 57 228 182 428 333 536 35 25
66 52 69 61 4 8 11 15 18 15 8 0 9 -19 4 -62z m-2250 -263 c331 -65 568 -190
684 -358 34 -50 71 -152 71 -197 l0 -31 -52 7 c-193 25 -496 165 -621 288 -54
54 -178 213 -206 265 l-24 44 59 -6 c32 -3 73 -9 89 -12z m4099 -744 c196 -58
294 -141 366 -309 37 -88 41 -106 46 -232 5 -142 -25 -250 -70 -250 -60 0
-281 152 -411 284 -104 105 -230 282 -286 400 -35 73 -35 82 -6 89 12 3 51 15
87 25 80 24 175 22 274 -7z m-4573 -167 c74 -21 363 -174 476 -250 156 -106
276 -223 390 -383 110 -153 164 -272 212 -468 34 -140 42 -208 44 -366 2 -117
2 -118 -17 -95 -10 13 -49 84 -86 158 -115 230 -264 452 -459 685 -140 166
-139 165 -184 159 -52 -6 -71 -17 -102 -59 -22 -28 -25 -40 -20 -67 15 -70 51
-124 176 -270 124 -145 312 -443 426 -676 37 -75 69 -140 71 -144 9 -17 -19
-6 -74 31 -33 21 -77 42 -99 46 -51 9 -83 34 -222 173 -203 203 -304 386 -436
797 -126 391 -155 500 -172 651 -4 33 -9 67 -11 77 -7 22 15 22 87 1z m4009
-85 c16 -23 52 -83 80 -135 61 -113 140 -213 251 -319 110 -105 279 -232 352
-264 31 -14 56 -30 54 -34 -3 -10 -78 -42 -178 -76 -41 -15 -87 -22 -130 -22
-62 0 -169 21 -207 40 -10 5 -44 22 -76 37 -133 65 -221 187 -267 373 -31 123
-24 197 32 333 24 59 47 108 51 108 5 0 21 -19 38 -41z m-1440 -721 c-34 -99
-68 -183 -105 -263 -20 -44 -64 -142 -97 -219 -179 -418 -298 -566 -540 -675
-73 -32 -246 -83 -292 -85 l-31 -1 4 50 c8 112 63 265 132 365 212 305 452
546 722 724 62 41 135 92 162 114 28 23 53 41 57 42 4 0 -1 -24 -12 -52z
m1203 -28 c35 -54 107 -131 155 -168 l24 -18 -34 -33 c-18 -18 -51 -45 -73
-59 -22 -14 -65 -49 -95 -78 -91 -87 -113 -103 -160 -119 -32 -11 -52 -25 -65
-47 -27 -47 -67 -84 -185 -173 -58 -43 -215 -167 -350 -275 -135 -108 -292
-231 -350 -275 -58 -43 -107 -81 -110 -85 -3 -3 -52 -44 -110 -90 -58 -46
-126 -104 -152 -127 l-47 -43 -98 -1 c-54 -1 -109 -3 -123 -5 -29 -4 -264 -8
-330 -5 -45 1 -45 1 -45 39 -1 20 -3 50 -5 66 l-5 29 170 57 c254 85 310 117
487 281 143 132 171 157 266 228 72 54 231 184 452 369 36 29 74 61 85 71 59
49 230 185 300 238 44 33 116 94 160 135 96 90 188 160 195 150 3 -4 22 -32
43 -62z m-3540 -742 c51 -72 116 -140 199 -209 62 -52 62 -61 -6 -65 -23 -1
-106 -12 -186 -24 -80 -12 -170 -23 -200 -25 -30 -3 -91 -9 -135 -15 -81 -11
-275 -34 -420 -50 -90 -10 -522 -91 -617 -115 -74 -20 -129 -10 -228 41 -138
71 -157 120 -70 178 38 25 317 121 455 156 44 11 154 36 245 55 91 18 217 45
280 59 103 23 299 50 450 62 30 3 56 7 59 9 2 3 32 5 67 5 l62 0 45 -62z
m3622 -12 c28 -4 61 -8 75 -11 14 -2 43 -7 65 -10 100 -14 352 -69 504 -110
91 -25 208 -57 260 -70 51 -14 112 -35 135 -46 41 -21 96 -73 96 -92 0 -23
-85 -88 -169 -131 -136 -67 -144 -67 -376 -2 -143 40 -249 63 -374 81 -97 14
-212 32 -256 40 -44 8 -118 17 -165 20 -161 10 -224 16 -241 26 -10 5 -37 9
-60 9 l-42 0 19 21 c10 12 31 29 45 38 15 9 53 40 85 69 33 28 100 82 149 120
l90 67 55 -6 c30 -4 78 -10 105 -13z m-746 -527 c40 -1 92 -6 115 -10 47 -9
174 -26 261 -34 33 -3 76 -8 95 -10 19 -2 60 -7 90 -10 30 -4 71 -11 91 -16
20 -5 68 -11 105 -14 123 -9 162 -15 196 -30 18 -8 30 -14 25 -15 -4 0 -49 -6
-100 -14 -103 -16 -163 -25 -222 -32 -42 -5 -95 -13 -240 -38 -49 -8 -132 -17
-183 -20 -51 -3 -97 -8 -102 -11 -5 -3 -91 -7 -193 -10 -101 -2 -196 -9 -209
-14 -14 -5 -60 -9 -102 -9 -76 0 -77 0 -59 20 10 11 44 38 75 59 31 22 61 45
65 53 11 18 206 165 213 161 4 -2 39 -5 79 -6z m-3055 -51 c-5 -7 -20 -22 -34
-33 -14 -11 -52 -43 -85 -71 l-61 -51 -89 13 c-50 7 -137 19 -195 28 -58 9
-127 19 -155 22 -62 8 -94 23 -50 25 104 3 248 21 383 45 46 8 111 17 145 20
33 3 63 7 66 9 2 3 22 5 43 5 29 0 37 -3 32 -12z m662 -57 c-9 -10 -44 -33
-76 -50 -172 -92 -376 -323 -471 -532 -53 -117 -53 -157 -3 -211 42 -43 55
-48 102 -36 61 15 104 65 147 171 44 106 76 151 190 262 145 141 290 234 489
312 67 26 136 55 154 66 30 18 34 18 57 3 67 -44 88 -177 38 -248 -30 -44 -65
-64 -168 -98 -259 -86 -514 -318 -825 -755 -51 -71 -124 -170 -161 -220 -37
-49 -81 -116 -97 -148 -22 -43 -32 -54 -40 -45 -5 7 -31 78 -56 158 -103 327
-138 545 -110 680 3 14 9 54 15 90 16 108 37 165 89 244 61 91 158 182 252
236 111 64 341 133 462 139 28 1 28 0 12 -18z m4279 -200 c0 -110 -3 -142 -17
-162 -28 -44 -403 -198 -518 -214 -25 -3 -67 -12 -95 -19 -76 -21 -207 -47
-396 -80 -14 -2 -73 -13 -130 -24 -57 -12 -155 -23 -218 -27 -63 -3 -134 -10
-158 -15 -23 -6 -71 -12 -105 -15 -35 -3 -106 -11 -158 -17 -52 -5 -138 -12
-190 -14 -52 -3 -133 -7 -180 -9 -47 -3 -159 -7 -250 -10 -91 -3 -208 -10
-260 -16 -88 -10 -662 -13 -1005 -6 -77 2 -193 4 -258 5 -115 2 -117 2 -107
22 6 12 33 35 59 53 26 18 80 54 120 80 40 27 115 66 167 88 103 41 151 68
178 98 17 18 31 19 349 15 252 -3 351 0 412 10 45 8 160 14 263 15 100 1 188
4 195 6 16 5 191 17 297 20 47 1 108 5 135 9 87 10 427 44 509 51 43 3 82 7
86 10 3 2 82 16 176 30 93 14 210 35 259 46 50 10 102 19 118 19 77 0 441 109
622 187 84 36 90 37 95 20 3 -11 5 -81 5 -156z m-6434 154 c24 -9 87 -36 140
-60 107 -51 444 -139 624 -164 39 -6 113 -19 165 -30 52 -10 122 -22 154 -25
33 -3 62 -8 64 -11 3 -2 -11 -55 -31 -117 -19 -62 -38 -137 -41 -167 -2 -29
-7 -56 -10 -59 -10 -10 -214 18 -391 53 -218 43 -411 110 -628 216 -76 37 -87
46 -92 73 -12 65 -12 306 0 306 1 0 22 -7 46 -15z m309 -745 c40 -12 118 -32
174 -45 56 -12 145 -34 198 -48 96 -25 262 -54 348 -60 44 -3 45 -3 56 -47 6
-25 19 -97 27 -160 11 -84 31 -163 75 -295 86 -257 148 -392 220 -476 32 -38
39 -41 73 -36 72 9 103 39 159 148 28 56 75 135 104 177 29 43 89 138 134 212
45 74 116 178 158 230 42 52 82 104 90 115 12 17 24 19 91 17 42 -2 81 -6 86
-9 21 -13 1337 -25 1432 -13 39 5 147 9 240 11 94 1 226 7 295 15 69 7 159 13
200 14 41 0 93 5 115 9 42 10 96 16 230 26 129 10 264 25 350 40 44 8 118 17
165 21 47 3 92 8 100 10 8 2 137 28 285 58 149 30 311 68 360 84 50 17 92 28
94 26 9 -8 -19 -196 -45 -314 -119 -533 -471 -1119 -879 -1466 -185 -157 -445
-306 -665 -382 l-95 -32 -1310 2 -1310 3 -100 39 c-575 222 -986 628 -1329
1313 -75 150 -113 252 -140 373 -15 62 -36 145 -47 184 -41 136 -54 294 -25
283 8 -3 46 -15 86 -27z"/>
<path d="M5560 1993 c-8 -3 -42 -16 -75 -28 -33 -13 -98 -37 -145 -55 -248
-92 -653 -288 -890 -430 -335 -201 -579 -385 -610 -460 -14 -33 -15 -33 -160
-31 -177 3 -406 58 -485 115 -16 12 -37 21 -45 20 -8 0 -27 -2 -42 -2 -38 -3
-108 -67 -108 -98 0 -33 26 -94 53 -122 29 -32 107 -71 187 -93 101 -29 416
-78 503 -78 75 0 82 -2 149 -43 39 -24 81 -49 95 -57 49 -26 249 -90 368 -116
101 -23 135 -26 215 -22 354 20 695 271 909 668 52 97 176 374 206 459 24 72
52 191 58 258 4 39 1 48 -33 83 -33 35 -41 39 -86 38 -27 0 -56 -3 -64 -6z
m-190 -498 c-175 -409 -324 -586 -586 -693 -91 -38 -157 -52 -242 -52 -66 0
-252 30 -252 40 0 4 28 12 62 19 93 19 213 59 304 101 72 33 82 41 87 70 12
60 7 85 -24 123 -27 32 -36 37 -74 37 -45 0 -153 -22 -202 -41 -48 -19 -183
-51 -195 -47 -20 7 76 73 237 165 229 130 676 350 779 384 50 16 105 37 121
47 l30 19 3 -27 c2 -15 -19 -77 -48 -145z"/>
</g>
</svg>
